<svg xmlns="http://www.w3.org/2000/svg" viewBox="0 0 72.76 41.57"><defs><style>.b-1,.b-2{fill:#fff;}.b-2{fill-rule:evenodd;}.b-3{fill:red;}</style></defs><g id="Layer_2" data-name="Layer 2"><g id="Layer_1-2" data-name="Layer 1"><path d="M40.44,41.57a244.9,244.9,0,0,1-27.07-1.5,12.36,12.36,0,0,1-8.08-4.29A14.12,14.12,0,0,1,1.92,27L0,27.33V19.45l4.43-.86a66,66,0,0,0,8.44-17L13.38,0l.51,1.56a66.23,66.23,0,0,0,6.44,14L26,14.45v7.88l-1.67.32a13.81,13.81,0,0,1,.52,2.71c5.19-.33,10.46-.5,15.65-.5a245.67,245.67,0,0,1,31.14,2l.36,0,.08.35a24.57,24.57,0,0,1,0,11.93l-.08.36-.37,0a245.4,245.4,0,0,1-31.13,2"/><path class="b-1" d="M40.44,41.29a244.36,244.36,0,0,1-27-1.5A12.09,12.09,0,0,1,5.5,35.6a13.88,13.88,0,0,1-3.3-9L.28,27V19.68l4.32-.83A66,66,0,0,0,13.14,1.64l.24-.73.24.73a66.31,66.31,0,0,0,6.57,14.2l5.48-1.05v7.3l-1.75.34a14.19,14.19,0,0,1,.62,3.23c5.28-.35,10.63-.52,15.91-.52a245,245,0,0,1,31.1,2l.17,0,0,.17a24.49,24.49,0,0,1,0,11.79l0,.17-.17,0a245,245,0,0,1-31.1,2"/><path d="M16.24,39a240,240,0,0,0,54.57-.67,23.08,23.08,0,0,0,0-10.13,240.21,240.21,0,0,0-46.2-1.37,13.53,13.53,0,0,1-3.24,8.65A11.92,11.92,0,0,1,16.24,39"/><path class="b-2" d="M25.54,30h2.12v3c0,2.35,2.32,2.31,3.95,2.31s4.07.1,4.07-2.31V30h2.13v3.57c0,3.69-3.58,3.58-6.16,3.58s-6.11.08-6.11-3.58Z"/><path class="b-2" d="M48.8,35.84a2.21,2.21,0,0,0,2.2-2.2V30H48.88v3.21a.92.92,0,0,1-.91.92H42.12a.92.92,0,0,1-.92-.92v-5H39.09v5.43a2.2,2.2,0,0,0,2.19,2.2H48.8"/><path class="b-2" d="M43.92,28.16a.78.78,0,1,0,1,.75.9.9,0,0,0-1-.75"/><path class="b-2" d="M46.17,28.16c-.54,0-1,.34-1,.75a1,1,0,0,0,2,0c0-.41-.45-.75-1-.75"/><path class="b-2" d="M31.77,28.16a.78.78,0,1,0,0,1.51.9.9,0,0,0,1-.76c0-.41-.45-.75-1-.75"/><path class="b-2" d="M63.81,36.59a.78.78,0,1,0,0,1.51.9.9,0,0,0,1-.76c0-.41-.45-.75-1-.75"/><path class="b-2" d="M67.12,29.82V33a.92.92,0,0,1-.92.92H60V29.81H57.92c-3.34,0-6.07,1.34-6.07,3s2.7,2.94,6,2.95a2.24,2.24,0,0,1-1.06,1.14l1,1.41A4.63,4.63,0,0,0,60,35.72h7a2.22,2.22,0,0,0,2.2-2.21V29.82Zm-9.2,4.9c-1.1,0-3.93-.38-3.93-1.95s2.87-1.94,3.93-2Z"/><path class="b-3" d="M19.06,16.1l-5.07,1c-.24-.8-.44-1.61-.61-2.42h0a27.48,27.48,0,0,1-.68,2.67L6.12,18.6A67,67,0,0,0,13.38,4.33,67.51,67.51,0,0,0,19.06,16.1"/><path class="b-3" d="M20.42,34.88a11,11,0,0,1-6.72,3.75,6.88,6.88,0,0,0-.32-8.35,6.91,6.91,0,0,0-.32,8.35,11,11,0,0,1-6.72-3.75,12.68,12.68,0,0,1-3-8.51l5.83-1.13a9.35,9.35,0,0,0,1,8.11,9.06,9.06,0,0,1,3.19-8.86h0a9.06,9.06,0,0,1,3.2,8.86A9.39,9.39,0,0,0,17,23.73l5.83-1.12a12.66,12.66,0,0,1-2.38,12.27"/><path d="M4,22.43a1.46,1.46,0,0,0,.59-1.14,1,1,0,0,0-.52-.92,1.32,1.32,0,0,0-.68-.16,4.37,4.37,0,0,0-.72.08,7.7,7.7,0,0,0-1.2.34l-.08,0v5h.13a7.39,7.39,0,0,0,1-.13,3.15,3.15,0,0,0,1.77-.82,1.74,1.74,0,0,0,.46-1.16A1.06,1.06,0,0,0,4,22.43M2.48,21.24a1.59,1.59,0,0,1,.33-.08l.25,0c.29,0,.43.13.43.41s-.3.67-.78.76l-.23.05Zm.25,3.3-.25.05V23.22l.27,0,.29,0c.38,0,.58.18.58.52,0,.64-.62.83-.89.88"/><path d="M7.82,22.35c0,.78-.26,1.22-.77,1.32l-.15,0c-.37,0-.56-.34-.56-1V19.61l-1.1.21v3c0,1.55.76,1.88,1.39,1.88a2.48,2.48,0,0,0,.45-.05,2.27,2.27,0,0,0,1.85-2.51v-3l-1.11.21Z"/><polygon points="12.93 18.33 9.37 19.02 9.37 20.01 10.6 19.77 10.6 23.87 11.7 23.66 11.7 19.56 12.93 19.32 12.93 18.33"/><path d="M15.13,17.91l-1.25.24L12.4,23.52l1.14-.22.37-1.4,1.17-.22.38,1.25,1.14-.22Zm-1,3,.38-1.5.39,1.36Z"/><path d="M19.74,18.71c0,.5,0,1,0,1.42-.15-.3-.31-.6-.48-.87l-1.16-1.93L17,17.54v5.09l1-.2V20.71c0-.59,0-1.08,0-1.51.15.31.33.63.52.94l1.17,2,1-.2V16.82l-1,.2Z"/><polygon points="22.75 20.55 22.75 19.36 24.37 19.05 24.37 18.1 22.75 18.41 22.75 17.4 24.46 17.07 24.46 16.1 21.65 16.64 21.65 21.73 24.56 21.17 24.56 20.2 22.75 20.55"/></g></g></svg>